<svg width="15" height="15" viewBox="0 0 15 15" fill="none" xmlns="http://www.w3.org/2000/svg">
<path d="M7.5 0C6.61875 0 5.89286 0.846875 5.89286 1.875C5.89286 2.57813 6.23196 3.19563 6.73018 3.51563L5.15571 7.1875L2.69464 5.13688C2.85912 4.96053 2.99027 4.74612 3.07975 4.50733C3.16922 4.26854 3.21504 4.01061 3.21429 3.75C3.21429 2.72188 2.48839 1.875 1.60714 1.875C0.725893 1.875 0 2.72188 0 3.75C0 4.5925 0.496071 5.29313 1.155 5.5275L2.14286 11.875V15H12.8571V11.875L13.845 5.5275C14.5039 5.29313 15 4.5925 15 3.75C15 2.72188 14.2741 1.875 13.3929 1.875C12.5116 1.875 11.7857 2.72188 11.7857 3.75C11.7857 4.29438 11.9823 4.7925 12.3048 5.13688L9.84375 7.1875L8.26982 3.51563C8.52241 3.35453 8.73333 3.11733 8.8806 2.82877C9.02787 2.54021 9.1061 2.21084 9.10714 1.875C9.10714 0.846875 8.38125 0 7.5 0ZM7.5 1.25C7.80161 1.25 8.03571 1.52375 8.03571 1.875C8.03571 2.22688 7.80107 2.5 7.5 2.5C7.19839 2.5 6.96429 2.22625 6.96429 1.875C6.96429 1.52313 7.19893 1.25 7.5 1.25ZM1.60714 3.125C1.90875 3.125 2.14286 3.39875 2.14286 3.75C2.14286 4.10188 1.90821 4.375 1.60714 4.375C1.30554 4.375 1.07143 4.10125 1.07143 3.75C1.07143 3.39813 1.30607 3.125 1.60714 3.125ZM13.3929 3.125C13.6945 3.125 13.9286 3.39875 13.9286 3.75C13.9286 4.10188 13.6939 4.375 13.3929 4.375C13.0912 4.375 12.8571 4.10125 12.8571 3.75C12.8571 3.39813 13.0918 3.125 13.3929 3.125ZM7.5 4.53125L9.1575 8.39875L9.96107 8.63313L12.6396 6.40625L11.8859 11.25H3.11411L2.36089 6.40625L5.03946 8.63313L5.84304 8.39875L7.5 4.53125ZM3.21429 12.5H11.7857V13.75H3.21429V12.5Z" fill="#FEDD74"/>
</svg>
