<svg width="25" height="25" viewBox="0 0 25 25" fill="none" xmlns="http://www.w3.org/2000/svg">
<path d="M12.5 25C5.59609 25 0 19.4039 0 12.5C0 5.59609 5.59609 0 12.5 0C19.4039 0 25 5.59609 25 12.5C25 15.8152 23.683 18.9946 21.3388 21.3388C18.9946 23.683 15.8152 25 12.5 25ZM12.5 1.5625C6.45937 1.5625 1.5625 6.45937 1.5625 12.5C1.5625 18.5406 6.45937 23.4375 12.5 23.4375C18.5406 23.4375 23.4375 18.5406 23.4375 12.5C23.4375 9.59918 22.2851 6.81719 20.234 4.76601C18.1828 2.71484 15.4008 1.5625 12.5 1.5625Z" fill="black"/>
<path d="M17.9687 11.7187H13.2812V7.03124H11.7187V11.7187H7.03124V13.2812H11.7187V17.9687H13.2812V13.2812H17.9687V11.7187Z" fill="black"/>
</svg>
