<svg width="8" height="8" viewBox="0 0 8 8" fill="none" xmlns="http://www.w3.org/2000/svg">
<path d="M3.99992 2.33337C4.32648 2.33336 4.64585 2.42927 4.91836 2.60921C5.19087 2.78914 5.40452 3.04517 5.53277 3.34549C5.66102 3.64582 5.69822 3.9772 5.63974 4.29848C5.58127 4.61976 5.4297 4.91678 5.20386 5.15266C4.97802 5.38854 4.68787 5.55287 4.36943 5.62525C4.05099 5.69763 3.71831 5.67487 3.4127 5.5598C3.10709 5.44472 2.84201 5.2424 2.6504 4.97796C2.4588 4.71353 2.34909 4.39863 2.33492 4.07237L2.33325 4.00004L2.33492 3.92771C2.35356 3.49862 2.53712 3.0933 2.84733 2.79626C3.15753 2.49922 3.57043 2.3334 3.99992 2.33337Z" fill="#969191" fill-opacity="0.5"/>
</svg>
