<svg width="25" height="25" viewBox="0 0 25 25" fill="none" xmlns="http://www.w3.org/2000/svg">
<path d="M4.4644 1.85791e-06C4.29873 7.84509e-06 4.13633 0.0496564 3.99537 0.143393C3.85441 0.23713 3.74044 0.371257 3.66622 0.53077L0.0949712 8.22307C0.0177373 8.38869 -0.0134084 8.57481 0.00528234 8.75905C0.0239731 8.94329 0.0917039 9.11778 0.200323 9.26153L8.96239 20.875C8.93856 20.6483 8.92723 20.4204 8.92846 20.1923C8.92846 19.5096 9.0606 18.8596 9.29987 18.2711L2.76805 9.61538H7.38032L9.67485 17.5288C10.048 16.9288 10.5409 16.4231 11.1194 16.0538L9.24987 9.61538H11.9105C12.1441 8.90597 12.5045 8.25267 12.9711 7.6923H9.17845L10.5177 1.92308H14.4818L15.4281 6.00961C16.0074 5.82335 16.6117 5.74402 17.2155 5.77499L16.3227 1.92308H19.9833L22.6617 7.6923H20.9564C21.4171 8.24807 21.7814 8.89807 22.0153 9.61538H22.2296L22.0778 9.8173C22.3476 10.7459 22.3949 11.7329 22.2153 12.6865L24.7991 9.25961C24.9076 9.11624 24.9755 8.94219 24.9945 8.75834C25.0135 8.57449 24.9828 8.38863 24.9062 8.22307L21.335 0.53077C21.2606 0.370965 21.1464 0.236644 21.0051 0.142887C20.8638 0.0491308 20.701 -0.000349464 20.535 1.85791e-06H4.4644ZM2.33772 7.6923L5.01615 1.92308H8.67669L7.33747 7.6923H2.33772ZM20.535 11.5384C20.535 12.5585 20.1588 13.5368 19.489 14.2581C18.8193 14.9794 17.9109 15.3846 16.9638 15.3846C16.0166 15.3846 15.1083 14.9794 14.4385 14.2581C13.7688 13.5368 13.3925 12.5585 13.3925 11.5384C13.3925 10.5184 13.7688 9.5401 14.4385 8.81881C15.1083 8.09752 16.0166 7.6923 16.9638 7.6923C17.9109 7.6923 18.8193 8.09752 19.489 8.81881C20.1588 9.5401 20.535 10.5184 20.535 11.5384ZM23.2135 20.1923C23.2135 22.5865 21.4278 25 16.9638 25C12.4997 25 10.7141 22.5961 10.7141 20.1923C10.7141 19.4272 10.9963 18.6935 11.4986 18.1526C12.0009 17.6116 12.6822 17.3077 13.3925 17.3077H20.535C21.2454 17.3077 21.9267 17.6116 22.429 18.1526C22.9313 18.6935 23.2135 19.4272 23.2135 20.1923Z" fill="black"/>
</svg>
